<?xml version="1.0" encoding="UTF-8"?>
<svg id="Layer_1" xmlns="http://www.w3.org/2000/svg" version="1.1" viewBox="0 0 3500 3500">
  <!-- Generator: Adobe Illustrator 29.0.0, SVG Export Plug-In . SVG Version: 2.1.0 Build 186)  -->
  <defs>
    <style>
      .st0 {
        fill: #92278f;
      }
    </style>
  </defs>
  <path class="st0" d="M2122.9,770.3c-88,143.2-225.2,182.7-381.6,182.1-66.7-.2-133.1-6.8-200.2-1.8-110.5,8.3-206.3,50.1-293.3,116.2-58.1,44.2-114.3,91.5-180.2,124.1-116.8,57.8-237.8,74.9-362.6,29.3-172.1-62.9-228.9-290.5-106.3-421.7,65-69.5,185.1-80.8,252.8-23.8,44.7,37.6,57.7,97,31.4,143.9-20.4,36.5-65.1,52.4-101.9,36.2,15,20.8,46,34.1,79.4,34.1,129.6.3,208.1-131.6,146.1-245.4-19-35-46.6-63.1-73-92.1-56.6-62.1-77.7-132-45.1-212.6,42.4-104.9,183.3-142.9,270.8-74.1,13.6,10.7,21.7,19.4,4.2,33.8-8.2,6.7-14,16.3-19.9,25.8,27.1-19.1,51.1-42.1,79.2-60,239.2-152.2,537.6-138.8,758.7,40,124.4,100.6,201.4,232.8,221,392.7,15.7,128-13.5,246.6-97.7,348.1-23.4,28.2-53,48.7-84.2,68.7,35.7-46.4,53.8-98.6,55-157-38.1,78-99.5,134.7-166.8,185.6-57.8,43.7-80.3,104.2-86.7,173-1.7,18-2.5,36.1-3.4,54.1-.9,18.9-12,26.2-29.4,26-15.1-.2-29.1-6-43.7-9.1-18-3.8-35.5-4.9-48.2,13.8-19.9,29.1-30.6,30.6-62,10.7-.3,2.4-1.1,4.7-.7,6.7,7.2,32.2-2.5,47-34.1,43.8-22.3-2.3-35.1,4.3-49.1,21-24.4,29.1-70.4,31.7-108.1,9.2-43.8-26.2-70.6-68.8-100.7-107.8-25.4-32.9-50.2-66.6-70.7-102.9-7.8-13.8-14.1-13.9-26.2-4-59.1,48.4-90,111.2-98.5,186.2-14.1,124.2,25.3,236.1,83.7,341.9,83.3,150.9,193.6,278.1,342.2,368.9,101.7,62.1,212.1,95,331.8,88.3,265.9-14.9,452.3-243.2,435.1-475.6-6.8-92.1-48.3-166.1-132.4-220.4,7.6,16.2,13.2,27.5,18.2,39,71.8,164.6,9.4,377.7-136.9,466.1-34.9,21.1-72.5,34.1-114.4,26.6-24.1-4.3-44.3-15.3-60.1-34.3-8.8-10.6-18.3-25.4-14.1-36,7.5-18.9,2.7-26.4-12.4-37.7-11.4-8.6,6.1-19.8,8.9-31.8-18.9-3.8-30.3-16.3-39.3-31.4-13.4-22.6-11.5-37,10.3-51.4,34.4-22.8,34.3-55.6,28.7-90.1-4.9-30.5-6.8-61.1-.9-91.3,20.8-106.3,88.7-172.2,188.1-204,174.4-55.8,344.9,20.4,431.3,190.8,88.5,174.5,88.9,354.2,18.6,533.5-80.9,206.5-229.2,342.9-445.2,398.8-160.8,41.6-319.3,24.5-474.2-32.9-222.7-82.6-412.8-214.9-581.7-379.9-63.5-62.1-124-127-181-196.2,11,23.2,21.5,46.7,33.2,69.6,12.2,23.7,24,47.8,38.5,70.1,134.5,206.2,302.2,377.2,523.4,490.8,150.6,77.4,309.8,121.2,480.5,113.4,173.2-8,329.6-66,473.4-160.9,3.9-2.6,7.8-5.3,11.8-7.7,1.3-.8,3-.8,4.5-1.2-88.7,154.7-388.9,330.7-647.6,382.8,34.9-3.4,70-5.2,104.6-10.5,193.5-29.7,371.4-99.6,528.4-216.6,275.5-205.2,449.7-475.9,514.4-814.7,47.1-246.6,1.9-479.1-109.6-701.3-39.8-79.2-76.8-159.7-103.5-245.8,28.1,35.6,57.2,70.4,84,106.9,110.6,150.3,193.4,314,233.4,497.3,24.3,111.2,29.5,223.8,18.6,337.1-21,218.2-92.4,419.1-213.1,601.5-217.9,329.2-522.1,531-910,604.3-94.2,17.8-190.2,24.2-286.2,19.6-204.2-9.6-396.1-63.4-573.6-165.5-262.2-150.8-446.1-368.4-542.1-654.9-103.5-308.8-71.5-608.6,81.6-895.4,28.9-54.1,64.3-104.3,104.3-151,7.1-8.3,12.8-12.8,25.4-10.4,205.8,39.9,384-22.7,544.8-148.4,50.7-39.6,97.4-84.6,156.6-112.4,63.1-29.7,129.8-41,198.9-40.6,84,.4,168.4,4.4,251.2-14.1,90-20.1,169.2-58.2,220.1-140.2,24.7-39.8,35-94.2,25.1-135.8h0ZM1698,1096.8c-23.4,62.6.8,130.5,50.7,152.9,38.3,17.2,80.5,5.8,99.2-28.7-94.8,16-121.6-52.2-149.9-124.2ZM2113.8,1891.3c-46.2,23.7-89.6,40.8-137.3,14.7-11.1-6.1-13.7.2-12.1,10.3,3.2,20.5,25.1,38.8,48.9,40.8,44.7,3.8,79.8-18.3,100.5-65.7h0Z"/>
  <path class="st0" d="M2937.3,822.1c31.8,91.9,78.2,177.3,41.1,276.2-17.8,47.5-50.3,84.4-83.2,121.4-7.4,8.4-10.6,3.7-15.7-2.8-83.9-106.5-83.3-223.7,2.3-329.2,17.1-21.1,35.1-41.5,55.5-65.6h0Z"/>
  <path class="st0" d="M2621.7,582.4c136.8,120.5,166.2,242.8,65.8,386.5-120.7-100.6-146.7-192.9-65.8-386.5Z"/>
  <path class="st0" d="M2345.9,1017.6c49-8.9,95-12.8,141.1-6.5,93.6,12.6,150.9,70.7,187.5,153.1,16.9,38,16.3,38.1-23.7,43.8-92,13.2-168.6-14.9-229.8-85.1-27.9-32.1-50.8-67.7-75.1-105.4h0Z"/>
  <path class="st0" d="M2468.7,1350.4c68.8-32.9,137.2-49.9,209.9-33.7,52.4,11.7,89.6,46.8,120,89.4,7.7,10.8,13.5,23.1,21.3,33.8,11.8,16,10.9,23.5-10.8,29.6-107.4,30-203.4,14.9-284.5-66.6-17.5-17.6-36.2-34-55.9-52.5h0Z"/>
  <path class="st0" d="M1949.8,2246.2c-102,19.6-194.9,10.7-284-30.1-35.8-16.4-68.4-38.1-99.8-61.7-13.7-10.3-15.1-16.9,2.3-24.8,72.2-32.9,143.7-34.7,214.6,3.2,25.7,13.7,48.8,31.5,70.6,50.7,27.7,24.4,57.3,45.8,96.4,62.8h0Z"/>
</svg>